<?xml version="1.0" encoding="UTF-8"?><svg xmlns="http://www.w3.org/2000/svg" xmlns:xlink="http://www.w3.org/1999/xlink" height="139.2" preserveAspectRatio="xMidYMid meet" version="1.0" viewBox="-0.1 -0.7 137.3 139.2" width="137.3" zoomAndPan="magnify"><linearGradient gradientTransform="scale(-1) rotate(8.726 898.618 -895.627)" gradientUnits="userSpaceOnUse" id="a" x1="-.399" x2="137.055" xlink:actuate="onLoad" xlink:show="other" xlink:type="simple" xmlns:xlink="http://www.w3.org/1999/xlink" y1="68.557" y2="68.557"><stop offset="0" stop-color="#6fd6ff"/><stop offset="1" stop-color="#bff0cf"/></linearGradient><path d="M20.1,106.62c-1.54-0.7-2.01-2.93-3.43-4.62c-0.31-0.6,0.32,0.19,1.13,1.33 C18.58,104.47,19.72,105.83,20.1,106.62z M12.98,107.02l-0.59,0.43c0.71,1.11,1.54,2.07,1.99,1.81c-0.45-0.58-0.81-0.84-1.18-1.09 C13.41,107.94,13.55,107.71,12.98,107.02z M49,124.5c1.31,0.45,2.55,0.81,3.37,0.76c-4.86-1.2-10.46-3.91-14.3-5.64 c1.16,0.64,2.31,1.3,3.5,1.89l3.65,1.59C46.31,123.52,47.69,124.06,49,124.5z M118.71,113.03c-0.91,1.24-1.93,2.28-2.86,3.32 c-0.95,1.02-1.85,2.03-2.77,2.92c-1.89,1.74-3.59,3.42-5.3,4.88c-0.04,0.03-0.08,0.07-0.12,0.1c-0.85,0.32-1.66,0.49-2.41,0.45 c-1.2,0.96-2.45,1.7-3.62,2.46c-1.19,0.74-2.31,1.48-3.43,2.11c-0.03,0.02-0.06,0.03-0.08,0.04c-0.12-0.01-0.23-0.03-0.37-0.02 c-0.02,0.08-0.04,0.17-0.06,0.25c-2.08,1.1-4,2.17-5.87,3.07c-2.04,0.94-3.94,1.96-5.83,2.9c-1.9,0.91-3.75,1.92-5.64,3.05 c1.93-0.71,4.2-1.54,6.65-2.43c2.37-1.04,4.95-2,7.45-3.16c0.72-0.35,1.45-0.68,2.18-1.02c0,0.01-0.01,0.01-0.01,0.02 c0.69-0.21,1.1-0.43,1.44-0.67c1.26-0.58,2.5-1.16,3.68-1.78c-1.17,1.06-2.33,2.16-3.48,3.34c1.68-1.18,3.66-2.57,5.79-4.07 c0.38-0.31,0.78-0.61,1.18-0.92c0,0,0.01,0,0.01,0c1.1-0.52,2.14-1.05,3.15-1.47c0.2-1.16-1.48,0.78-1.75,0.39 c0.74-0.56,1.48-1.12,2.21-1.71c1.5-1.1,2.94-2.17,4.23-3.32c0.98-0.83,1.92-1.65,2.81-2.46c0.27-0.26,0.52-0.53,0.77-0.8 c0.96-0.84,1.92-1.65,2.85-2.4c0.93-0.79,1.8-1.57,2.67-2.24c-0.11-1.22-1.33,1.34-1.63,0.79c1.8-2.28,3.56-4.33,4.97-6.48 c0.73-1.05,1.43-2.09,2.08-3.11c0.62-1.04,1.15-2.11,1.66-3.15c-1.89,2.38-3.65,4.9-5.32,7.06 C122.24,111.11,120.44,112.68,118.71,113.03z M134.44,78.23c-0.28,1.32-0.53,2.55-0.78,3.72c-0.22,1.18-0.43,2.29-0.63,3.37 c-0.24,1.07-0.46,2.13-0.64,3.19c0.34-1.15,0.7-2.39,1.08-3.65c0.3-1.28,0.6-2.6,0.9-3.88c0.63-2.57,0.81-5.1,0.74-7.05 C134.87,75.48,134.65,76.9,134.44,78.23z M44.77,132.86c1.33,0.42,2.89,1.1,4.45,1.66c1.56,0.55,3.15,0.84,4.4,0.78 c-1.44-0.39-3.25-0.87-4.85-1.49C47.15,133.22,45.68,132.77,44.77,132.86z M135,51.35c0.41,1.3,0.82,2.57,1.21,3.79 c-0.34-1.48-0.7-2.95-1.09-4.39c-0.47-1.42-0.96-2.81-1.47-4.15c-0.26-0.67-0.52-1.32-0.78-1.97c-0.28-0.63-0.6-1.24-0.91-1.83 c-0.62-1.18-1.26-2.29-1.9-3.3c1.27,2.62,2.55,5.25,3.48,7.93C134.03,48.76,134.57,50.06,135,51.35z M127.08,34.64 c0.63,1.04,1.23,1.91,1.82,2.44c-1.23-2.03-2.47-4.51-3.85-5.79c0.36,0.57,0.73,1.14,1.08,1.7 C126.46,33.56,126.78,34.12,127.08,34.64z M46.55,107.12c-0.38-0.31-1.06-0.77-1.87-1.26c-0.82-0.49-1.69-1.14-2.63-1.64 c-0.26,0.14-0.69,0.24-0.14,0.2c0.93,0.38,1.77,1.38,2.09,1.69c-0.74-0.55-1.52-1.21-1.77-0.57c0.22,0.01,0.41,0.08,0.6,0.17 c-0.06,0.03-0.11,0.05-0.17,0.11c-0.04,0.21,0.45,0.69,1.03,1.05c0.59,0.33,1.24,0.57,1.4,0.44c-0.25-0.1-0.49-0.32-0.73-0.57 c0.18,0.07,0.35,0.06,0.51-0.09c-0.21-0.07-0.46-0.24-0.71-0.42C46.91,107.77,47.31,107.74,46.55,107.12z M47.71,113.79 c1.11,0.5,2.32,1.52,3.08,0.73C49.51,114.06,48.46,113.63,47.71,113.79z M0.56,77.67c0.2,0.71,0.41,1.38,0.6,1.95 C0.95,78.9,0.78,78.15,0.7,77.4c-0.06-0.75-0.08-1.5-0.1-2.2c-0.04-1.41-0.07-2.64-0.39-3.45c-0.29,0.84-0.25,2.24-0.05,3.72 C0.26,76.2,0.4,76.95,0.56,77.67z M41.81,117.92c-0.15,0.09,0.69,0.75,3.07,1.3c-0.89-0.52-1.63-0.84-2.16-1.05 C42.21,117.95,41.88,117.87,41.81,117.92z M27.11,107.15c1.28,0.89,2.67,2.17,3.84,2.32c-0.83-0.67-1.83-1.75-2.55-2.52 c-0.73-0.77-1.2-1.24-0.88-0.78C28.8,107.38,27.21,106.34,27.11,107.15z M38.23,115.78c-1.01-1.43-2.99-1.66-4.72-3.23 C33.6,114.08,37.5,114.98,38.23,115.78z M10.69,36.06c-0.12-0.34-0.07-1.01,0.29-0.93c0.63-0.92,2.35-3.93,2.83-4.35 c0.7-1.1,1.39-2.18,2.09-3.22c1.35-1.86,2.54-3.78,3.73-5.59c-0.21,0.77-0.31,1.51-1.01,2.56c0.84-0.84,1.65-1.64,2.46-2.42 c0.56-0.6,1.12-1.19,1.69-1.76c1.8-1.66,3.55-3.29,5.29-4.81c1.79-1.45,3.43-3,5.05-4.43c-0.4,0.69-0.69,1.38-1.64,2.21 c0.11-0.06,0.21-0.12,0.32-0.18c4.23-3.06,8.61-5.36,13.46-7.08c-0.25-0.48-1.39-0.02-2.57,0.51c-0.73-0.04,0.4-0.47,1.74-0.96 c1.32-0.51,2.92-0.89,2.98-1.28c-0.11,0.59,0.79,0.61,2.27,0.32c0.69-0.16,1.53-0.34,2.45-0.53c3.23-0.89,6.48-1.48,9.86-1.75 c-0.08-0.36-0.7-0.4-1.49-0.32c-0.27,0.04-0.53,0.07-0.81,0.11c0,0,0,0,0,0c-0.1,0.02-0.2,0.03-0.31,0.05 c-0.42-0.14-0.14-0.24,0.46-0.32c0.61-0.48,3-0.24,4.97-0.9c-0.49-0.42-1.85-0.31-2.66-0.53c2.88-1.15,3.88,1.1,7.34,0.78 c-0.33-0.33-1.1-0.47-2.08-0.5c0.34-0.25,1.21-0.25,1.05-0.73c3.91,0.16,7.84,0.68,11.73,1.54c-0.16-0.07-0.31-0.14-0.44-0.21 c1.41-0.17,2.25,0.26,3.08,0.82c0.85,0.22,1.69,0.48,2.53,0.73c0.32-0.02,0.62-0.05,0.61-0.36c9.17,2.86,17.92,7.8,25.37,14.44 c1.91,1.71,3.73,3.53,5.46,5.45c1.2,1.25,2.37,2.53,3.5,3.86c0.2,0.35,0.44,0.73,0.67,1.1c1.13,0.7,2.43,3.45,3.56,4.89 c-0.2-0.11-0.42-0.32-0.63-0.58c1.99,3.06,3.78,6.27,5.35,9.63c0.1,0.39,0.24,0.82,0.36,1.23c0.84,0.9,1.37,3.51,2.01,5.23 c-0.29-1.17-0.37-2.28-0.02-2.56c1.2,1.32,1.06,4.05,1.46,5.66c-0.49-0.34-1.03-1.56-1.37-2.79c-0.74-0.84-1.22-3.37-1.96-5.09 c0.05,0.15,0.08,0.28,0.13,0.43c0.2,0.75,0.42,1.55,0.64,2.38c0.42,1.66,1.06,3.4,1.44,5.31c0.4,1.9,0.93,3.86,1.21,5.9 c0.26,2.04,0.59,4.1,0.67,6.15c0.1,1.63,0.13,3.26,0.1,4.89c0,0.01,0,0.03,0,0.04c0,0.06,0,0.12,0,0.17c0,0.21,0,0.43-0.01,0.64 c-0.03,7.04-0.99,14.12-3.22,20.91c-4.51,14.07-13.64,26.95-26.67,35.4c0.02-0.24,0.15-0.49,0.42-0.77c-2.89,2-5.95,3.78-9.17,5.3 c-0.92,0.53-1.84,1.06-2.74,1.58c-0.69,0.38-1.36,0.77-2.06,1.1c-0.7,0.31-1.41,0.61-2.12,0.89c0.48-0.58,1.45-1.07,2.49-1.61 c0.14-0.08,0.28-0.15,0.42-0.23c-1.11,0.43-2.22,0.84-3.36,1.21c0.13-0.36,0.49-0.69,1.36-0.96c-0.06,0.01-0.12,0.03-0.18,0.05 c-0.4,0.14-0.8,0.29-1.22,0.42c-1.19,0.4-2.41,0.81-3.59,1.21c-1.2,0.33-2.37,0.6-3.41,0.83c1.11-0.44,2.35-0.82,3.66-1.28 c-1.6,0.44-3.16,0.92-4.71,1.44c-1.55,0.41-3.08,0.82-4.58,1.22c-0.76,0.18-1.51,0.39-2.27,0.52c-0.76,0.12-1.52,0.23-2.27,0.31 c0.62-0.44,1.67-0.66,2.83-0.91c1.15-0.29,2.41-0.55,3.44-0.89c-1.61,0.08-3.94,0.47-6.45,0.59c-1.25,0.08-2.54,0.16-3.78,0.24 c-1.24,0.01-2.44-0.03-3.51-0.08c1.61-0.19,3.43-0.21,5.4-0.42c1.96-0.2,4.07-0.19,6.2-0.54c-1.68-0.65-4.12-0.95-6.54-1.13 c-0.6-0.05-1.21-0.1-1.8-0.15c-0.59-0.1-1.16-0.19-1.71-0.28c-1.1-0.2-2.08-0.44-2.85-0.77c0.42,0.18,0.55-0.11,0.4-0.49 c-1.26,0.05-3.37-0.45-4.72-0.5c0.78-0.37,2.94,0.13,4.61,0.3c-0.2-0.32-0.57-0.66-1.15-0.84c-0.1-0.04-0.19-0.07-0.28-0.1 c0.13-0.01,0.24-0.06,0.3-0.15c-0.15,0.22-2.06-1.5-0.35-1.25c-2.08-0.48-4-1.08-5.8-1.7c-1.77-0.71-3.41-1.53-4.99-2.33 c1.77,0.38,4.61,1.87,7.53,2.48c2.88,0.78,5.71,0.78,6.77-0.64c-1.03-0.9-2.08-1.72-3.51-2.45c-1.42-0.81-3.27-1.35-5.9-1.85 c-0.13-0.48,0.02-1.04-0.55-1.41c0.15-0.38,1.66,0.75,2.94,0.66c0.46-0.08,0.54-0.48,1.36-0.26c-0.03-0.13-0.11-0.25-0.19-0.36 c-0.92-0.1-2.18-0.25-3.07-0.28c-0.06-0.44,0.43-0.38,0.94-0.3c-1.49-0.54-2.62-0.74-3.77-1.04c-1.16-0.26-2.39-0.45-4.04-0.96 c0.37-0.41-0.39-0.67-0.99-0.95c1.51,0.34,3.67,0.81,5.84,1.58c1.08,0.39,2.23,0.64,3.29,1c0.47,0.14,0.93,0.3,1.38,0.46 c-0.38-0.32-0.84-0.61-1.18-0.95c0.94-0.21,3.31,2.14,3.76,0.14c0.04-0.7-1.62-0.72-2.75-0.96c0.16-0.52,1.1-0.34,2.09-0.14 c-0.1-0.75-0.48-1.29-0.4-1.67c-0.7-0.1-1.34-0.28-1.57-0.41c0.11-0.18,0.43-0.16,0.48-0.4c-4.93-1.07,0.16-0.4,1.8,0.32 c0.01,0,0.02-0.01,0.04-0.01c-0.9-0.84-1.44-1.21-2.01-1.52c-0.57-0.29-1.16-0.58-2.06-1.29c0.33-0.18,0.92,0.03,1.54,0.28 c0.63,0.22,1.28,0.52,1.68,0.65c0.42-0.17,0.83-0.35,1.22-0.54c-0.55-0.87-2.94-0.23-3.2-0.82c0.11-0.33,0.21-0.66-0.19-0.81 c0.91-0.21,2.16,1.1,3.82,1.21c-0.03-0.34-1.41-0.7,0.07-0.48c-0.41-0.55-2.15-0.49-2.74-0.96c0.83-0.09,2.6-0.03,3.92,0.16 c0.32-0.61-0.65-0.59-0.94-0.89c-0.74-0.17-1.12,0.01-1.15,0.55c-1.12-0.92-1.2-1.74-2.38-2.19c-0.43-0.79,1.54-0.09,0.49-0.63 c0.59-0.4,2-0.16,3.44,0.16c0.36,0.08,0.72,0.15,1.07,0.22c0.35,0.04,0.69,0.06,1.01,0.07c0.47,0.01,0.87-0.01,1.17-0.11 c-1.21-0.08-2.41-0.22-3.62-0.4c-0.13-0.02-0.27-0.04-0.4-0.06c-0.37-0.06-0.73-0.13-1.1-0.2c-0.37-0.07-0.74-0.14-1.11-0.21 c-0.13-0.03-0.25-0.06-0.38-0.09c-2.71-0.61-5.32-1.48-7.8-2.59c-0.06-0.03-0.12-0.06-0.18-0.08c-0.55-0.25-1.1-0.51-1.63-0.78 c-0.18-0.09-0.35-0.18-0.52-0.27c-0.41-0.21-0.82-0.43-1.22-0.66c-0.28-0.16-0.55-0.32-0.83-0.49c-0.28-0.17-0.57-0.34-0.85-0.51 c-0.1-0.06-0.2-0.12-0.29-0.18c-0.07,0.1,0.21,0.34,0.91,0.71c-0.8,0.3-1.98-1.21-2.47-1.64c-1.07,1.17,1.34,1.52,1.67,2.31 c-1.67-0.3-2.82-1.93-4.18-2.3c0.31,0.38,1.41,1.3,2.66,2.17c-0.73-0.3-1.67-0.49-2.57-0.79c-0.21-0.07-0.42-0.15-0.61-0.25 c0.56,0.53,1.08,1.06,1.49,1.39c-0.12,0.01-0.24-0.02-0.36-0.04c0.02,0.04,0.06,0.07,0.08,0.11c-1.9-0.05-2.98-2.57-5.21-3.21 c-0.19,0.67,1.51,0.67,1.5,1.58c0.19-0.29,0.84,0.22,1.51,0.91c0.67,0.7,1.48,1.47,1.8,1.92c-1.92-1.05-3.15-2.16-4.5-3.19 c-0.69-0.5-1.33-1.08-2.04-1.71c-0.73-0.61-1.53-1.28-2.45-2.05c1.81,1.89,2.58,3.88,5,6.1c-0.65-1.75,0.95,0.49,1.01,1.16 c0.58-0.22,1.47,0.34,2.45,1.11c-0.14,0.19-0.49-0.11-0.76-0.23c3.14,3.16,7.97,5.22,13.65,7.42c-1-0.19-1.99-0.43-2.97-0.69 c-0.97-0.3-1.89-0.71-2.81-1.09c-0.31-0.12-0.6-0.26-0.89-0.39c0.62,0.37,1.13,0.74,1.18,0.97c0.56,0.29,0.71,0.03,1.18,0.2 c0.2,0.34-0.6,0.23-1.54-0.04c-0.94-0.26-1.94-0.83-2.21-1.09c0.15-0.14,0.46-0.04,0.56-0.26c-2.37-1.22-2.15-1.24-1.22-0.83 c-0.74-0.42-1.45-0.86-2.16-1.28c-0.8-0.45-1.51-0.99-2.22-1.49c-0.42-0.22-0.84-0.43-1.25-0.67c-0.85-0.54-1.64-1.17-2.43-1.78 c-0.48-0.35-0.92-0.72-1.35-1.11c-0.26-0.16-0.51-0.32-0.77-0.46c0.98,1.01,1.89,1.95,2.82,2.8c0.52,0.28,1.09,0.68,1.75,1.14 c-0.09,0.06-0.18,0.08-0.27,0.1c0.01,0.01,0.02,0.02,0.04,0.03c0.74,0.58,1.46,1.14,2.18,1.7c0.76,0.51,1.55,0.98,2.35,1.48 c3.2,1.98,7.02,3.72,12.62,5.22c-1.24,0.01-2.55-0.29-3.9-0.7c-1.35-0.39-2.76-0.85-4.09-1.5c-2.74-1.13-5.29-2.63-7.75-3.49 c-0.23-0.3-0.09-0.34,0.04-0.48c-0.09-0.06-0.19-0.11-0.28-0.17c-1.21-0.73-2.44-1.53-3.56-2.51c-0.58-0.44-1.14-0.9-1.69-1.37 c0.3,0.51,0.49,1.06,0.73,0.82c0.74,0.96-0.89,0.29-1.39-0.21c-0.01,0.56,0.57,1.46-0.63,0.75c-0.27,0.52,0.64,1.24,0.66,1.83 c0.35,0.11,0.67,0.25,1.14,0.58l1.39,0.96c1.1,0.6,2.33,1.31,3.55,2.14c0.94,0.66,1.99,1.19,2.92,1.82 c0.96,0.59,1.83,1.25,2.64,1.75c0.22,0.23-2.46-0.95-4.02-1.43c0.01-0.11,0.05-0.18,0.11-0.22c-1.81-0.64-3.45-1.82-5.89-3.62 c-0.09-0.06-0.18-0.1-0.27-0.16c0.01-0.01,0.01-0.02,0.02-0.02c-0.07-0.05-0.13-0.09-0.2-0.15c0.08,0.04,0.15,0.07,0.23,0.11 c0.23-0.22-0.02-0.49-0.37-0.78c-2.12-0.87-3.63-1.96-5.25-3.06c-0.77-0.62-1.56-1.26-2.43-1.95c-0.88-0.69-1.87-1.41-2.92-2.32 c0.07-1.59-2.91-2.76-4.11-5.1c0.2,0.34,0.56,1.61,1.17,2.78c0.34,0.58,0.73,1.13,1.16,1.53c-0.12-0.26-0.18-0.51-0.14-0.76 c0.33,0.51,0.7,0.94,1.08,1.32c0.13,0.03,0.25,0.05,0.38,0.04c0.12,0.23,0.12,0.34,0.07,0.4c0.92,0.86,1.81,1.54,2.19,2.58 c-0.31-0.6-1.77-1.54-2.77-2.53c-0.02,0-0.04,0.01-0.05,0.01c0.99,0.86,1.19,0.98,1.24,1.87c0.55,0.44,0.06-0.57,0.67-0.01 c0.27,0.72,0.5,1.39,1.66,2.9c0.29,0.29,0.56,0.59,0.86,0.87c0.2-0.21-0.06-0.54-0.38-0.9c1.74,1.82,3.67,3.52,5.75,5.12 c-0.11-0.19-0.13-0.38,0.02-0.54c0.8,0.66,1.69,1.2,2.56,1.77c-0.21,0.01-0.96-0.2-1.63-0.51c4.55,3.34,9.85,6.16,15.94,8.33 c-0.01,0.72-2.29-0.93-2.32-0.23c1.28,1.01,4.75,1.67,6.97,2.19c0.61-0.77-1.68-0.7-2.56-1.06c-1.02-0.6,3.71,0.43,3.99,0.86 c-0.77,0.47-2.35,0.29-4.13-0.11c-1.75-0.51-3.69-1.26-5.32-1.72c0.3-0.11,0.59-0.22,0.68-0.55c-0.43-0.13-0.86-0.29-1.28-0.47 c-0.2,0.51,0.09,0.56-1.3,0.78c-0.35-0.07-0.54-0.27-0.66-0.49c-0.21-0.08-0.42-0.16-0.64-0.26c-1.05-0.46-2.17-1.24-2.98-1.49 c0.74,0.02,1.29,0.21,1.83,0.47c-0.04-0.24,0.08-0.43-0.72-0.93c-0.88,0.17-2.28-0.38-3.83-1.18c-1.56-0.95-3.24-2.18-4.69-3.04 c0.2-0.02,0.39-0.05,0.55-0.13c-0.34-0.25-0.68-0.5-1.02-0.75c-0.13,0.22-0.23,0.27-1.29,0.16c-1.11-0.55-0.03-2.11-1.3-1.34 c-0.92-0.94-0.52-0.99-0.59-1.36c-1.33-1.05-2.57-1.99-3.56-2.66c0.14-0.02,0.21-0.07,0.24-0.13c-0.96-0.91-2.06-2.05-3.09-3.39 c-0.61-0.76-1.23-1.53-1.85-2.31c-0.01-0.01-0.02-0.02-0.02-0.03c-0.06,0.25-0.14,0.56-0.66,0.19c-0.16,0.28,0.03,0.57,0.31,0.84 c-0.02-0.04-0.05-0.08-0.09-0.13c0.5,0.08,0.75,0.43,0.95,0.85c0.18,0.17,0.28,0.31,0.18,0.42c0.19,0.48,0.39,0.99,0.79,1.36 c-0.67,0.09-0.87-0.67-1.04-1.24c-0.01,0-0.01,0.01-0.02,0.01c-0.19-0.23-0.35-0.39-0.49-0.53c-0.04,0.04-0.09,0.08-0.15,0.15 c-0.1-0.15-0.11-0.26-0.09-0.37c-0.53-0.44-0.74-0.34-1.11-0.76c-0.27-0.67-0.14-1.16,0.39-1.47c-0.8-1.19-1.33-1.35-1.93-1.45 c1.76,1.28-0.42,0.33,1.15,2.03c-0.28,0.07-0.71-0.62-0.96-0.45c0.32,1.19,2.21,3.05,2.87,4.35c-1.43-1.55-3.32-3.52-4.66-5.35 c-1.39-1.79-2.61-3.17-3.04-3.26c-0.6,0.09-0.84-2.42,0.19-0.67c-0.22-0.72-2.48-3.09-3.28-5.37c-0.06,0.7,0.14,1.55-0.7,0.85 c0.63,2.09,0.71,1.46,1.75,2.97c-0.29-0.14-0.59-0.27-0.88-0.1c0.98,1.32,1.03,0.63,1.17,2.19c-3.02-4.95-5.7-11.56-7.24-18.46 C4.34,76.99,4,73.46,3.73,70.09c-0.05-1.68-0.07-3.34-0.07-4.93c-0.03-1.6,0.19-3.12,0.29-4.58c-0.37-0.51,0.13-1.11,0.5-1.83 c0.08-0.64,0.18-1.26,0.28-1.89c-0.23-0.11-0.74,0.64-0.38-0.78c0.28-0.48,0.57-1.24,0.87-2.16c0.03-0.15,0.05-0.3,0.08-0.45 c0.39-1.64,0.8-3.24,1.21-4.78c0.38-1.55,0.99-2.97,1.47-4.35c-0.25-0.64,0.53-1.11,1.1-1.79c0.21-0.52,0.42-1.05,0.64-1.57 c-0.15-0.25-0.93,0.45-0.19-0.87c0.44-0.43,0.97-1.18,1.56-2.11c0.12-0.24,0.23-0.49,0.36-0.72c0.6-1.16,1.17-2.28,1.74-3.31 c0.62-0.99,1.21-1.9,1.74-2.7c-2.04,2.68-3.54,5.38-5.07,8c-1.31,2.73-2.7,5.4-3.62,8.43C7.09,43.52,8.79,39.65,10.69,36.06z M44.05,121.46c0.15,0.07,0.31,0.14,0.47,0.21C44.43,121.4,44.34,121.25,44.05,121.46z M30.31,102.38 c-0.09-0.09-0.18-0.19-0.28-0.28c-0.05,0.17-0.04,0.33-0.01,0.5C30.06,102.5,30.19,102.48,30.31,102.38z M87.31,5.53 c0.59,0.18,1.15,0.35,1.65,0.46c-0.5-0.21-0.98-0.4-1.46-0.59C87.38,5.44,87.31,5.48,87.31,5.53z M20.21,97.66 c-0.51-0.53-1.01-1.2-1.51-1.83c-0.04,0.03-0.07,0.04-0.11,0.09c0.53,1.05,1.27,2.27,1.8,1.99C20.34,97.84,20.27,97.75,20.21,97.66z M15.78,90.51c0.16,0.2,0.33,0.37,0.52,0.49c-0.15-0.32-0.3-0.67-0.43-1.12C15.79,90.05,15.77,90.27,15.78,90.51z M16.09,91.49 c0.02,0.03,0.03,0.06,0.04,0.1c0.22,0.32,0.37,0.56,0.49,0.77c0.04,0.05,0.07,0.11,0.12,0.16c0.74,0.94,1.67,1.8,2.08,2.26 c-0.7-1.67-1.5-2.11-2.18-3.17C16.5,91.62,16.26,91.47,16.09,91.49z M16.57,98.32c0.56,0.88,1.02,1.5,0.9,0.91 c-0.65-0.8-0.93-1.59-1.17-2.22c-0.26-0.62-0.52-1.08-1.12-1.28C15.48,96.21,16.05,97.41,16.57,98.32z M16.69,100.28l1.84,2.75 l0.4-0.29C18.17,101.96,17.27,99.46,16.69,100.28z M40.93,119.77c0.04-0.03,0.04-0.06,0.07-0.09c-0.43-0.16-0.94-0.39-1.52-0.7 c-1.25-0.65-2.81-1.56-4.34-2.73C36.39,117.46,39.12,118.8,40.93,119.77z M33.85,106.16c0.09-0.03,0.18-0.02,0.26-0.01 c-1.35-1.17-2.65-2.32-3.98-3.22c0.23,0.48,0.73,0.97,1.33,1.49c0.48,0.4,1,0.86,1.56,1.29c0.56,0.43,1.12,0.89,1.59,1.41 C34.75,106.86,34.19,106.5,33.85,106.16z M40.63,110.36c-0.19-0.06-0.43-0.18-0.71-0.33c0.23,0.16,0.47,0.32,0.71,0.48 C40.63,110.46,40.64,110.42,40.63,110.36z M39.81,103.37c-0.3-0.33-0.61-0.66-0.95-0.98C38.95,102.78,39.34,103.07,39.81,103.37z M38.9,102.13c-0.01-0.02-0.03-0.03-0.04-0.05c0,0.01,0,0.02,0,0.03C38.87,102.11,38.89,102.12,38.9,102.13z M130.43,49.18 c-0.4-1.27-0.8-2.28-0.84-2.17c0,0.01,0,0.02,0,0.03C129.94,47.96,130.21,48.67,130.43,49.18z M124.28,34.25 c-0.11-0.32-0.5-1-1.11-1.86c0.52,0.9,0.88,1.51,1.12,1.88C124.28,34.26,124.28,34.26,124.28,34.25z M121.2,27.77 c0.05,0.07,0.08,0.14,0.13,0.21c0.32,0.44,0.63,0.9,0.94,1.34C121.92,28.77,121.56,28.23,121.2,27.77z M64.52,1.63 c0.21,0.3,0.98,0.46,2.09,0.54c0.94,0.04,2.13,0.1,3.45,0.17c0.35-0.01,0.67-0.04,0.92-0.1c-0.13,0.05-0.2,0.1-0.27,0.14 c0.55,0.03,1.11,0.07,1.68,0.11c-0.12-0.36,2.09-0.1,5.06,0.4c0.66,0.13,1.36,0.3,2.08,0.47c1.25,0.21,2.34,0.51,3.23,0.83 c0.25,0.06,0.5,0.13,0.75,0.19c0.11,0.03,0.22,0.06,0.33,0.1c-0.55-0.6,1.73,0.45,3.27,0.77c-0.74-0.29-1.47-0.58-2.17-0.84 c-1.28-0.46-2.53-0.77-3.73-1.11c-1.16-0.3-2.29-0.61-3.39-0.83c-0.3-0.04-0.58-0.08-0.89-0.12c0-0.01,0.01-0.01,0.02-0.02 c-0.88-0.14-1.75-0.28-2.62-0.39c-1.12-0.13-2.23-0.3-3.37-0.35c-1.14-0.03-2.29-0.05-3.49-0.04C66.52,1.52,65.53,1.56,64.52,1.63z M8.6,37c0.39-1.02,1.92-2.85,1.56-3.32c-0.42,0.62-0.78,0.57-1.2,1.13C9.66,34.94,8.22,36.64,8.6,37z M47.85,121.51 c0.75,0.15,1.6,0.15,1.81,0.09c-0.99-0.32-1.99-0.61-2.93-1.05C46.5,121,47.1,121.36,47.85,121.51z M61.16,125.86 c-1.25,0.11-2.16-0.07-2.98-0.25c-0.82-0.21-1.55-0.37-2.53-0.13c0.84,0.03,2.12,0.49,3.26,0.66 C60.05,126.32,61.02,126.37,61.16,125.86z M47.81,108.25c1.82,0.48,3.27,2.37,4.55,1.9C51.19,109.65,49.1,108.13,47.81,108.25z M55.72,111.22c-0.91-0.07-2.74-1.37-2.85-0.39C54.07,110.58,55.23,111.97,55.72,111.22z M28.7,124.72 c1.18,0.75,2.51,1.81,3.87,2.76c1.36,0.93,2.82,1.63,4.05,1.89c-1.29-0.75-2.92-1.68-4.3-2.7C30.9,125.69,29.6,124.88,28.7,124.72z M4.59,92.7c0.26-0.17,0.45-0.35,0.08-1.16L3.99,91.8c0.4,1.26,0.95,2.4,1.46,2.27C5.17,93.39,4.88,93.04,4.59,92.7z M41.51,126.33 c1.5,0.46,3.87,1.79,4.98,1.77c1.69,0.65,3.26,1.12,3.86,0.89c-1.09-0.34-2.7-0.94-4.29-1.51c-1.58-0.58-3.09-1.3-4.15-1.55 c0.57,0.26,1.29,0.64,2.08,1.04c0.26,0.14,0.54,0.27,0.81,0.41C43.51,126.82,42.18,126.21,41.51,126.33z M32.33,111.59 c-0.73-0.73-1.36-1.23-1.81-1.57c-0.44-0.36-0.73-0.51-0.82-0.48C29.53,109.58,30.17,110.43,32.33,111.59z M25.65,110.2 c1.97,1.61,4.47,3.73,7.11,5.69c-0.01-0.15-0.03-0.29-0.28-0.47c1.17-0.11,1.43,1.46,2.54,2.05c-0.01,0-0.02,0-0.03,0.01 c1.01,0.68,2.02,1.33,3.02,1.88c-0.8-0.17-1.91-0.83-3.06-1.61c-0.12-0.08-0.23-0.16-0.35-0.24c-0.17-0.04-0.33-0.16-0.46-0.31 c-0.89-0.62-1.75-1.26-2.48-1.79l-3.11-2.48C27.55,112.06,26.61,111.12,25.65,110.2z M33.09,116.14c0.21,0.15,0.42,0.3,0.63,0.45 C33.49,116.21,33.3,115.92,33.09,116.14z M2.02,62.67c0.02-0.98,0.1-1.42,0.25-1.4c-0.11,0.68-0.21,1.4-0.32,2.15 c-0.07-0.08-0.12-0.18-0.21-0.25c-0.07,1.79-0.25,3.78-0.22,5.88c-0.02,2.1-0.09,4.32,0.13,6.5c0.16,2.19,0.34,4.38,0.82,6.37 c0.44,2,0.85,3.89,1.56,5.41c-0.25-1.55-0.52-3.19-0.78-4.85c0.24,1.16,0.51,2.38,0.86,3.63c0.53,2.04,1.03,4.19,1.81,6.25 c0.72,2.07,1.47,4.14,2.44,5.94c0.94,1.82,1.83,3.53,2.91,4.82c-2.52-5.6-5.62-12.27-6.58-17.9c0.16,0.36,0.29,0.97,0.53,0.91 c-0.62-0.76-0.94-2.06-1.14-3.25c-0.2-1.09-0.45-2.04-1.11-2.4c-0.05-0.37-0.1-0.74-0.15-1.11c0.04,0.15,0.09,0.3,0.13,0.44 c-0.35-1.47-0.27-1.75,0.29-1.09c-0.45-1.4-0.62-3.07-0.81-4.84c-0.09-0.88-0.16-1.79-0.22-2.71c-0.01-0.23-0.01-0.47-0.01-0.7 c0.01-0.73,0.05-1.45,0.11-2.15c0.06,0.39,0.03,1.01,0.27,1.02c-0.4-0.9-0.38-2.24-0.26-3.44c0.04-0.54,0.06-1.05,0.02-1.49 c0.02-0.41,0.03-0.85,0.07-1.24c0.05-0.55,0.09-1.08,0.13-1.6c0.02,0.03,0.03,0.06,0.05,0.1c-0.01-0.29,0-0.6,0.01-0.9 c0.01-0.22,0.02-0.43,0.04-0.64c0.08-1.06,0.25-2.18,0.43-3.34c0.14-0.88,0.31-1.77,0.49-2.67c0.18-0.9,0.47-1.78,0.71-2.66 c0-0.01,0.01-0.02,0.01-0.03c0.04,0.2,0.12,0.41,0.22,0.51c0.46-1.98,1.15-3.91,1.77-5.86c-0.1-1.22-1.31,3.51-1.77,4.81 c-0.03,0-0.04,0.04-0.07,0.05c0.46-1.57,0.88-3.12,1.39-4.49c0.56-1.53,1.05-2.92,1.37-4.08c-0.55,1.18-1.22,2.68-1.93,4.35 c-0.65,1.69-1.22,3.59-1.79,5.49c-0.3,0.95-0.52,1.91-0.68,2.88c-0.18,0.96-0.34,1.9-0.47,2.8c-0.12,0.9-0.26,1.76-0.29,2.56 C1.98,61.27,1.99,62.01,2.02,62.67z M35.09,122.43c-0.97-0.61-2.37-1.61-3.75-2.57c-1.38-0.97-2.65-2.05-3.61-2.57 c0.48,0.4,1.08,0.95,1.74,1.54c0.65,0.61,1.37,1.22,2.12,1.74C33.05,121.64,34.45,122.5,35.09,122.43z M0.47,57.74 c-0.09,0.74-0.16,1.5-0.19,2.23c0.01,0.74,0.04,1.44,0.07,2.04c-0.02-0.75,0.02-1.52,0.14-2.26c0.14-0.74,0.31-1.47,0.47-2.16 c0.32-1.37,0.61-2.57,0.52-3.43C0.97,54.9,0.65,56.26,0.47,57.74z M60.75,130.46C59.03,129.86,60.11,130.53,60.75,130.46 L60.75,130.46z M18.57,22.77c0.64-0.89,2.59-2.25,2.37-2.8c-0.57,0.49-0.9,0.34-1.45,0.78C20.12,21.06,18.29,22.33,18.57,22.77z M53.84,109.64c-1.04-0.23-2.65-1.36-3.31-1.01C51.58,109.36,52.62,109.77,53.84,109.64z M133.13,49.31 c0.17,0.64,0.34,1.26,0.49,1.84c0.34,1.16,0.69,2.16,1.12,2.83c-0.67-2.28-1.22-5-2.22-6.59C132.73,48.04,132.93,48.68,133.13,49.31 z M80.78,135c-0.45,0.83-0.84,1.66-1.8,2.3c1.71-0.05,1.93-0.6,3.2-0.86C82.08,135.68,81.66,135.17,80.78,135z M135.19,68.38 c0.03-1.66,0.87-4.25,0.05-5.84C134.36,62.93,134.4,67.45,135.19,68.38z M50.59,127.75c0.67,0.77,4.16,2.16,5.59,1.82 C54.65,128.89,51.64,127.48,50.59,127.75z M127.74,98.56c-0.52,1.08-1.01,2.1-1.48,3.09c-0.51,0.97-0.99,1.94-1.45,2.91 c0.63-1.02,1.3-2.12,1.98-3.25c0.62-1.16,1.25-2.35,1.88-3.52c1.28-2.32,2.1-4.71,2.54-6.62c-0.63,1.43-1.21,2.75-1.76,3.98 C128.84,96.37,128.27,97.5,127.74,98.56z M136.56,65.18c0.13,1.41,0.31,2.8,0.39,4.16c0.06,1.37,0.12,2.69,0.18,3.98 c0.05-1.51,0.09-3.03,0.08-4.52c-0.08-1.49-0.2-2.96-0.34-4.39c-0.08-0.71-0.16-1.41-0.24-2.1c-0.11-0.69-0.26-1.35-0.4-2.01 c-0.29-1.3-0.62-2.54-0.98-3.68C135.79,59.48,136.34,62.35,136.56,65.18z" fill="url(#a)"/></svg>